<svg xmlns="http://www.w3.org/2000/svg" xmlns:xlink="http://www.w3.org/1999/xlink" width="847" height="261.074" viewBox="0 0 847 261.074"><defs><filter id="a" x="0" y="0" width="250" height="250" filterUnits="userSpaceOnUse"><feOffset dy="3" input="SourceAlpha"/><feGaussianBlur stdDeviation="3" result="b"/><feFlood flood-opacity="0.161"/><feComposite operator="in" in2="b"/><feComposite in="SourceGraphic"/></filter><filter id="c" x="14" y="14" width="222" height="224" filterUnits="userSpaceOnUse"><feOffset dy="3" input="SourceAlpha"/><feGaussianBlur stdDeviation="3" result="d"/><feFlood flood-opacity="0.161"/><feComposite operator="in" in2="d"/><feComposite in="SourceGraphic"/></filter><filter id="e" x="27" y="30" width="194" height="193" filterUnits="userSpaceOnUse"><feOffset dy="3" input="SourceAlpha"/><feGaussianBlur stdDeviation="3" result="f"/><feFlood flood-opacity="0.161"/><feComposite operator="in" in2="f"/><feComposite in="SourceGraphic"/></filter><filter id="g" x="44" y="44" width="163" height="164" filterUnits="userSpaceOnUse"><feOffset dy="3" input="SourceAlpha"/><feGaussianBlur stdDeviation="3" result="h"/><feFlood flood-opacity="0.161"/><feComposite operator="in" in2="h"/><feComposite in="SourceGraphic"/></filter><filter id="i" x="57" y="58" width="135" height="136" filterUnits="userSpaceOnUse"><feOffset dy="3" input="SourceAlpha"/><feGaussianBlur stdDeviation="3" result="j"/><feFlood flood-opacity="0.161"/><feComposite operator="in" in2="j"/><feComposite in="SourceGraphic"/></filter><filter id="k" x="1" y="0" width="250" height="250" filterUnits="userSpaceOnUse"><feOffset dy="3" input="SourceAlpha"/><feGaussianBlur stdDeviation="3" result="l"/><feFlood flood-opacity="0.161"/><feComposite operator="in" in2="l"/><feComposite in="SourceGraphic"/></filter><filter id="m" x="15" y="13" width="222" height="224" filterUnits="userSpaceOnUse"><feOffset dy="3" input="SourceAlpha"/><feGaussianBlur stdDeviation="3" result="n"/><feFlood flood-opacity="0.161"/><feComposite operator="in" in2="n"/><feComposite in="SourceGraphic"/></filter><filter id="o" x="30" y="30" width="192" height="193" filterUnits="userSpaceOnUse"><feOffset dy="3" input="SourceAlpha"/><feGaussianBlur stdDeviation="3" result="p"/><feFlood flood-opacity="0.161"/><feComposite operator="in" in2="p"/><feComposite in="SourceGraphic"/></filter><filter id="q" x="44" y="44" width="163" height="164" filterUnits="userSpaceOnUse"><feOffset dy="3" input="SourceAlpha"/><feGaussianBlur stdDeviation="3" result="r"/><feFlood flood-opacity="0.161"/><feComposite operator="in" in2="r"/><feComposite in="SourceGraphic"/></filter><filter id="s" x="59" y="58" width="134" height="136" filterUnits="userSpaceOnUse"><feOffset dy="3" input="SourceAlpha"/><feGaussianBlur stdDeviation="3" result="t"/><feFlood flood-opacity="0.161"/><feComposite operator="in" in2="t"/><feComposite in="SourceGraphic"/></filter></defs><g transform="translate(-1203 -1680)"><g transform="matrix(1, 0, 0, 1, 1203, 1680)" filter="url(#a)"><circle cx="116" cy="116" r="116" transform="translate(9 6)" fill="#656565"/></g><g transform="matrix(1, 0, 0, 1, 1203, 1680)" filter="url(#c)"><ellipse cx="102" cy="103" rx="102" ry="103" transform="translate(23 20)" fill="#7d7d7d"/></g><g transform="matrix(1, 0, 0, 1, 1203, 1680)" filter="url(#e)"><ellipse cx="88" cy="87.5" rx="88" ry="87.5" transform="translate(36 36)" fill="#999"/></g><g transform="matrix(1, 0, 0, 1, 1203, 1680)" filter="url(#g)"><ellipse cx="72.5" cy="73" rx="72.5" ry="73" transform="translate(53 50)" fill="#b5b5b5"/></g><g transform="matrix(1, 0, 0, 1, 1203, 1680)" filter="url(#i)"><ellipse cx="58.5" cy="59" rx="58.5" ry="59" transform="translate(66 64)" fill="#c6c6c6"/></g><ellipse cx="44.5" cy="43" rx="44.5" ry="43" transform="translate(1283 1760)" fill="#d4d4d4"/><g transform="matrix(1, 0, 0, 1, 1203, 1680)" filter="url(#k)"><circle cx="116" cy="116" r="116" transform="translate(242 238) rotate(180)" fill="#656565"/></g><g transform="matrix(1, 0, 0, 1, 1203, 1680)" filter="url(#m)"><ellipse cx="102" cy="103" rx="102" ry="103" transform="translate(228 225) rotate(180)" fill="#7b9667"/></g><g transform="matrix(1, 0, 0, 1, 1203, 1680)" filter="url(#o)"><ellipse cx="87" cy="87.5" rx="87" ry="87.5" transform="translate(213 211) rotate(180)" fill="#9abc80"/></g><g transform="matrix(1, 0, 0, 1, 1203, 1680)" filter="url(#q)"><ellipse cx="72.5" cy="73" rx="72.5" ry="73" transform="translate(198 196) rotate(180)" fill="#b8e09a"/></g><g transform="matrix(1, 0, 0, 1, 1203, 1680)" filter="url(#s)"><ellipse cx="58" cy="59" rx="58" ry="59" transform="translate(184 182) rotate(180)" fill="#d8fdbc"/></g><path d="M44,0C68.3,0,88,19.252,88,43S68.3,86,44,86,0,66.748,0,43,19.7,0,44,0Z" transform="translate(1373 1846) rotate(180)" fill="#fff"/><text transform="translate(1495 1850)" fill="#505050" font-size="127" font-family="Cambria-Bold, Cambria" font-weight="700" letter-spacing="0.05em"><tspan x="0" y="0">IOT</tspan></text><text transform="translate(1722 1850)" fill="#909090" font-size="127" font-family="Cambria" letter-spacing="0.05em"><tspan x="0" y="0">matic</tspan></text><rect width="140.646" height="6.823" transform="translate(1331.911 1795.852) rotate(90)" fill="#fff"/><rect width="122.148" height="6.823" transform="translate(1291.823 1802) rotate(90)" fill="#fff"/><rect width="122.148" height="6.823" transform="translate(1373 1800.926) rotate(90)" fill="#fff"/><rect width="122.148" height="6.823" transform="translate(1312.411 1816.926) rotate(90)" fill="#fff"/><rect width="122.148" height="6.823" transform="translate(1351.411 1818.926) rotate(90)" fill="#fff"/></g></svg>