<svg xmlns="http://www.w3.org/2000/svg" width="838" height="235.928" viewBox="0 0 838 235.928"><g transform="translate(-171 -1382)"><circle cx="116" cy="116" r="116" transform="translate(171 1382)" fill="#656565"/><ellipse cx="102" cy="103" rx="102" ry="103" transform="translate(185 1396)" fill="#7d7d7d"/><ellipse cx="88" cy="87.5" rx="88" ry="87.5" transform="translate(198 1412)" fill="#999"/><ellipse cx="72.5" cy="73" rx="72.5" ry="73" transform="translate(215 1426)" fill="#b5b5b5"/><ellipse cx="58.5" cy="59" rx="58.5" ry="59" transform="translate(228 1440)" fill="#c6c6c6"/><ellipse cx="44.5" cy="43" rx="44.5" ry="43" transform="translate(242 1456)" fill="#d4d4d4"/><circle cx="116" cy="116" r="116" transform="translate(404 1614) rotate(180)" fill="#656565"/><ellipse cx="102" cy="103" rx="102" ry="103" transform="translate(390 1601) rotate(180)" fill="#7b9667"/><ellipse cx="87" cy="87.5" rx="87" ry="87.5" transform="translate(375 1587) rotate(180)" fill="#9abc80"/><ellipse cx="72.5" cy="73" rx="72.5" ry="73" transform="translate(360 1572) rotate(180)" fill="#b8e09a"/><ellipse cx="58" cy="59" rx="58" ry="59" transform="translate(346 1558) rotate(180)" fill="#d8fdbc"/><text transform="translate(454 1546)" fill="#505050" font-size="127" font-family="Cambria-Bold, Cambria" font-weight="700" letter-spacing="0.05em"><tspan x="0" y="0">IOT</tspan></text><text transform="translate(681 1546)" fill="#909090" font-size="127" font-family="Cambria" letter-spacing="0.05em"><tspan x="0" y="0">matic</tspan></text><rect width="106.672" height="3.411" transform="translate(290.412 1511.256) rotate(90)" fill="#fff"/><rect width="106.672" height="3.411" transform="translate(300.412 1511.256) rotate(90)" fill="#fff"/><rect width="106.672" height="3.411" transform="translate(280.412 1511.256) rotate(90)" fill="#fff"/><rect width="106.672" height="3.411" transform="translate(320.412 1511.256) rotate(90)" fill="#fff"/><rect width="106.672" height="3.411" transform="translate(330.412 1511.256) rotate(90)" fill="#fff"/><rect width="106.672" height="3.411" transform="translate(310.412 1511.256) rotate(90)" fill="#fff"/><rect width="106.672" height="3.411" transform="translate(260.412 1511.256) rotate(90)" fill="#fff"/><rect width="106.672" height="3.411" transform="translate(270.412 1511.256) rotate(90)" fill="#fff"/><rect width="106.672" height="3.411" transform="translate(250.412 1511.256) rotate(90)" fill="#fff"/><path d="M0,0H95.91V69.091H0Z" transform="translate(239.871 1459.472)" fill="none"/><path d="M77.327,27.438A29.72,29.72,0,0,0,47.955,4,30.072,30.072,0,0,0,21.38,19.677C9.351,20.919,0,30.814,0,42.805,0,55.65,10.75,66.088,23.977,66.088H75.928c11.03,0,19.981-8.692,19.981-19.4C95.91,36.441,87.717,28.137,77.327,27.438Z" transform="translate(239.871 1458.974)" fill="#fff"/></g></svg>