<svg xmlns="http://www.w3.org/2000/svg" width="838" height="235.928" viewBox="0 0 838 235.928"><g transform="translate(-1216 -1084)"><rect width="132.428" height="3.411" transform="translate(1335.412 1187.5) rotate(90)" fill="#fff"/><rect width="132.428" height="3.411" transform="translate(1325.412 1187.5) rotate(90)" fill="#fff"/><circle cx="116" cy="116" r="116" transform="translate(1216 1084)" fill="#656565"/><ellipse cx="102" cy="103" rx="102" ry="103" transform="translate(1230 1098)" fill="#7d7d7d"/><ellipse cx="88" cy="87.5" rx="88" ry="87.5" transform="translate(1243 1114)" fill="#999"/><ellipse cx="72.5" cy="73" rx="72.5" ry="73" transform="translate(1260 1128)" fill="#b5b5b5"/><ellipse cx="58.5" cy="59" rx="58.5" ry="59" transform="translate(1273 1142)" fill="#c6c6c6"/><ellipse cx="44.5" cy="43" rx="44.5" ry="43" transform="translate(1287 1158)" fill="#d4d4d4"/><circle cx="116" cy="116" r="116" transform="translate(1449 1316) rotate(180)" fill="#656565"/><ellipse cx="102" cy="103" rx="102" ry="103" transform="translate(1435 1303) rotate(180)" fill="#7b9667"/><ellipse cx="87" cy="87.5" rx="87" ry="87.5" transform="translate(1420 1289) rotate(180)" fill="#9abc80"/><ellipse cx="72.5" cy="73" rx="72.5" ry="73" transform="translate(1405 1274) rotate(180)" fill="#b8e09a"/><ellipse cx="58" cy="59" rx="58" ry="59" transform="translate(1391 1260) rotate(180)" fill="#d8fdbc"/><text transform="translate(1499 1248)" fill="#505050" font-size="127" font-family="Cambria-Bold, Cambria" font-weight="700" letter-spacing="0.05em"><tspan x="0" y="0">IOT</tspan></text><text transform="translate(1726 1248)" fill="#909090" font-size="127" font-family="Cambria" letter-spacing="0.05em"><tspan x="0" y="0">matic</tspan></text><g transform="translate(1252.712 1128.132)"><path d="M0,0H164.288V118.737H0Z" fill="none"/><path d="M132.457,44.262C127.8,21.265,107.061,4,82.144,4A51.49,51.49,0,0,0,36.622,30.93C16.018,33.063,0,50.061,0,70.658c0,22.064,18.414,40,41.072,40h88.989c18.893,0,34.227-14.931,34.227-33.329C164.288,59.726,150.255,45.462,132.457,44.262Z" transform="translate(0 2.042)" fill="#fff"/></g><rect width="132.428" height="3.411" transform="translate(1345.412 1187.5) rotate(90)" fill="#fff"/><rect width="132.428" height="3.411" transform="translate(1365.412 1187.5) rotate(90)" fill="#fff"/><rect width="132.428" height="3.411" transform="translate(1375.412 1187.5) rotate(90)" fill="#fff"/><rect width="132.428" height="3.411" transform="translate(1355.412 1187.5) rotate(90)" fill="#fff"/><rect width="132.428" height="3.411" transform="translate(1305.412 1187.5) rotate(90)" fill="#fff"/><rect width="132.428" height="3.411" transform="translate(1315.412 1187.5) rotate(90)" fill="#fff"/><rect width="132.428" height="3.411" transform="translate(1295.412 1187.5) rotate(90)" fill="#fff"/></g></svg>