<svg xmlns="http://www.w3.org/2000/svg" xmlns:xlink="http://www.w3.org/1999/xlink" width="834" height="250" viewBox="0 0 834 250"><defs><filter id="a" x="113.089" y="108.5" width="23.823" height="141.5" filterUnits="userSpaceOnUse"><feOffset dy="3" input="SourceAlpha"/><feGaussianBlur stdDeviation="3" result="b"/><feFlood flood-opacity="0.161"/><feComposite operator="in" in2="b"/><feComposite in="SourceGraphic"/></filter><filter id="c" x="0" y="0" width="250" height="250" filterUnits="userSpaceOnUse"><feOffset dy="3" input="SourceAlpha"/><feGaussianBlur stdDeviation="3" result="d"/><feFlood flood-opacity="0.161"/><feComposite operator="in" in2="d"/><feComposite in="SourceGraphic"/></filter><filter id="e" x="14" y="14" width="222" height="224" filterUnits="userSpaceOnUse"><feOffset dy="3" input="SourceAlpha"/><feGaussianBlur stdDeviation="3" result="f"/><feFlood flood-opacity="0.161"/><feComposite operator="in" in2="f"/><feComposite in="SourceGraphic"/></filter><filter id="g" x="27" y="30" width="194" height="193" filterUnits="userSpaceOnUse"><feOffset dy="3" input="SourceAlpha"/><feGaussianBlur stdDeviation="3" result="h"/><feFlood flood-opacity="0.161"/><feComposite operator="in" in2="h"/><feComposite in="SourceGraphic"/></filter><filter id="i" x="44" y="44" width="163" height="164" filterUnits="userSpaceOnUse"><feOffset dy="3" input="SourceAlpha"/><feGaussianBlur stdDeviation="3" result="j"/><feFlood flood-opacity="0.161"/><feComposite operator="in" in2="j"/><feComposite in="SourceGraphic"/></filter><filter id="k" x="57" y="58" width="135" height="136" filterUnits="userSpaceOnUse"><feOffset dy="3" input="SourceAlpha"/><feGaussianBlur stdDeviation="3" result="l"/><feFlood flood-opacity="0.161"/><feComposite operator="in" in2="l"/><feComposite in="SourceGraphic"/></filter><filter id="m" x="71" y="74" width="107" height="104" filterUnits="userSpaceOnUse"><feOffset dy="3" input="SourceAlpha"/><feGaussianBlur stdDeviation="3" result="n"/><feFlood flood-opacity="0.161"/><feComposite operator="in" in2="n"/><feComposite in="SourceGraphic"/></filter><filter id="o" x="0" y="0" width="250" height="250" filterUnits="userSpaceOnUse"><feOffset dy="3" input="SourceAlpha"/><feGaussianBlur stdDeviation="3" result="p"/><feFlood flood-opacity="0.161"/><feComposite operator="in" in2="p"/><feComposite in="SourceGraphic"/></filter><filter id="q" x="14" y="14" width="222" height="224" filterUnits="userSpaceOnUse"><feOffset dy="3" input="SourceAlpha"/><feGaussianBlur stdDeviation="3" result="r"/><feFlood flood-opacity="0.161"/><feComposite operator="in" in2="r"/><feComposite in="SourceGraphic"/></filter><filter id="s" x="29" y="30" width="192" height="193" filterUnits="userSpaceOnUse"><feOffset dy="3" input="SourceAlpha"/><feGaussianBlur stdDeviation="3" result="t"/><feFlood flood-opacity="0.161"/><feComposite operator="in" in2="t"/><feComposite in="SourceGraphic"/></filter><filter id="u" x="44" y="44" width="163" height="164" filterUnits="userSpaceOnUse"><feOffset dy="3" input="SourceAlpha"/><feGaussianBlur stdDeviation="3" result="v"/><feFlood flood-opacity="0.161"/><feComposite operator="in" in2="v"/><feComposite in="SourceGraphic"/></filter><filter id="w" x="58" y="58" width="134" height="136" filterUnits="userSpaceOnUse"><feOffset dy="3" input="SourceAlpha"/><feGaussianBlur stdDeviation="3" result="x"/><feFlood flood-opacity="0.161"/><feComposite operator="in" in2="x"/><feComposite in="SourceGraphic"/></filter><filter id="y" x="71" y="74" width="106" height="104" filterUnits="userSpaceOnUse"><feOffset dy="3" input="SourceAlpha"/><feGaussianBlur stdDeviation="3" result="z"/><feFlood flood-opacity="0.161"/><feComposite operator="in" in2="z"/><feComposite in="SourceGraphic"/></filter></defs><g transform="translate(-162 -1064)"><g transform="matrix(1, 0, 0, 1, 162, 1064)" filter="url(#a)"><rect width="123.5" height="5.823" transform="translate(127.91 114.5) rotate(90)" fill="#e8e8e8"/></g><g transform="matrix(1, 0, 0, 1, 162, 1064)" filter="url(#c)"><circle cx="116" cy="116" r="116" transform="translate(9 6)" fill="#656565"/></g><g transform="matrix(1, 0, 0, 1, 162, 1064)" filter="url(#e)"><ellipse cx="102" cy="103" rx="102" ry="103" transform="translate(23 20)" fill="#7d7d7d"/></g><g transform="matrix(1, 0, 0, 1, 162, 1064)" filter="url(#g)"><ellipse cx="88" cy="87.5" rx="88" ry="87.5" transform="translate(36 36)" fill="#999"/></g><g transform="matrix(1, 0, 0, 1, 162, 1064)" filter="url(#i)"><ellipse cx="72.5" cy="73" rx="72.5" ry="73" transform="translate(53 50)" fill="#b5b5b5"/></g><g transform="matrix(1, 0, 0, 1, 162, 1064)" filter="url(#k)"><ellipse cx="58.5" cy="59" rx="58.5" ry="59" transform="translate(66 64)" fill="#c6c6c6"/></g><g transform="matrix(1, 0, 0, 1, 162, 1064)" filter="url(#m)"><ellipse cx="44.5" cy="43" rx="44.5" ry="43" transform="translate(80 80)" fill="#d4d4d4"/></g><g transform="matrix(1, 0, 0, 1, 162, 1064)" filter="url(#o)"><circle cx="116" cy="116" r="116" transform="translate(241 238) rotate(180)" fill="#35537a"/></g><g transform="matrix(1, 0, 0, 1, 162, 1064)" filter="url(#q)"><ellipse cx="102" cy="103" rx="102" ry="103" transform="translate(227 226) rotate(180)" fill="#3163a4"/></g><g transform="matrix(1, 0, 0, 1, 162, 1064)" filter="url(#s)"><ellipse cx="87" cy="87.5" rx="87" ry="87.5" transform="translate(212 211) rotate(180)" fill="#277ff3"/></g><g transform="matrix(1, 0, 0, 1, 162, 1064)" filter="url(#u)"><ellipse cx="72.5" cy="73" rx="72.5" ry="73" transform="translate(198 196) rotate(180)" fill="#4996fc"/></g><g transform="matrix(1, 0, 0, 1, 162, 1064)" filter="url(#w)"><ellipse cx="58" cy="59" rx="58" ry="59" transform="translate(183 182) rotate(180)" fill="#90bcf7"/></g><g transform="matrix(1, 0, 0, 1, 162, 1064)" filter="url(#y)"><ellipse cx="44" cy="43" rx="44" ry="43" transform="translate(168 166) rotate(180)" fill="#d4d4d4"/></g><text transform="translate(444 1229)" fill="#505050" font-size="127" font-family="Cambria-Bold, Cambria" font-weight="700" letter-spacing="0.05em"><tspan x="0" y="0">IOT</tspan></text><text transform="translate(668 1229)" fill="#909090" font-size="127" font-family="Cambria" letter-spacing="0.05em"><tspan x="0" y="0">matic</tspan></text><g transform="translate(252.528 1157.586)"><path d="M0,0H68.944V49.829H0Z" fill="none"/><path d="M55.586,20.9A21.378,21.378,0,0,0,34.472,4a21.608,21.608,0,0,0-19.1,11.3A16.939,16.939,0,0,0,0,31.974,17.028,17.028,0,0,0,17.236,48.758H54.581A14.184,14.184,0,0,0,68.944,34.771,14.081,14.081,0,0,0,55.586,20.9Z" transform="translate(0 -1.465)" fill="#e8e8e8"/></g></g></svg>