<svg xmlns="http://www.w3.org/2000/svg" width="838" height="245" viewBox="0 0 838 245"><g transform="translate(-158 -397)"><circle cx="116" cy="116" r="116" transform="translate(158 397)" fill="#656565"/><ellipse cx="102" cy="103" rx="102" ry="103" transform="translate(172 411)" fill="#7d7d7d"/><ellipse cx="88" cy="87.5" rx="88" ry="87.5" transform="translate(185 427)" fill="#999"/><ellipse cx="72.5" cy="73" rx="72.5" ry="73" transform="translate(202 441)" fill="#b5b5b5"/><ellipse cx="58.5" cy="59" rx="58.5" ry="59" transform="translate(215 455)" fill="#c6c6c6"/><ellipse cx="44.5" cy="43" rx="44.5" ry="43" transform="translate(229 471)" fill="#d4d4d4"/><circle cx="116" cy="116" r="116" transform="translate(391 629) rotate(180)" fill="#656565"/><ellipse cx="102" cy="103" rx="102" ry="103" transform="translate(377 616) rotate(180)" fill="#7b9667"/><ellipse cx="87" cy="87.5" rx="87" ry="87.5" transform="translate(362 602) rotate(180)" fill="#9abc80"/><ellipse cx="72.5" cy="73" rx="72.5" ry="73" transform="translate(347 587) rotate(180)" fill="#b8e09a"/><ellipse cx="58" cy="59" rx="58" ry="59" transform="translate(333 573) rotate(180)" fill="#d8fdbc"/><path d="M44,0C68.3,0,88,19.252,88,43S68.3,86,44,86,0,66.748,0,43,19.7,0,44,0Z" transform="translate(319 557) rotate(180)" fill="#fff"/><text transform="translate(441 561)" fill="#505050" font-size="127" font-family="Cambria-Bold, Cambria" font-weight="700" letter-spacing="0.05em"><tspan x="0" y="0">IOT</tspan></text><text transform="translate(668 561)" fill="#909090" font-size="127" font-family="Cambria" letter-spacing="0.05em"><tspan x="0" y="0">matic</tspan></text><rect width="129" height="88" transform="translate(319 513) rotate(90)" fill="#fff"/></g></svg>